<svg width="280" height="280" viewBox="0 0 280 280" fill="none" xmlns="http://www.w3.org/2000/svg">
<circle cx="140" cy="140" r="140" fill="#F7F7F7"/>
<path d="M122.724 85.834L103.115 105.496" stroke="#333333" stroke-width="5" stroke-miterlimit="10" stroke-linecap="round" stroke-linejoin="round"/>
<path d="M157.281 85.834L176.89 105.496" stroke="#333333" stroke-width="5" stroke-miterlimit="10" stroke-linecap="round" stroke-linejoin="round"/>
<path d="M85.834 117.521C85.834 107.5 91.1965 106.688 97.859 106.688H182.142C188.805 106.688 194.167 107.5 194.167 117.521C194.167 129.167 188.805 128.354 182.142 128.354H97.859C91.1965 128.354 85.834 129.167 85.834 117.521Z" stroke="#333333" stroke-width="5"/>
<path d="M127.865 150.834V170.063" stroke="#333333" stroke-width="5" stroke-linecap="round"/>
<path d="M152.785 150.834V170.063" stroke="#333333" stroke-width="5" stroke-linecap="round"/>
<path d="M93.959 129.166L101.596 175.966C103.33 186.474 107.501 194.166 122.992 194.166H155.655C172.501 194.166 174.992 186.799 176.942 176.616L186.042 129.166" stroke="#333333" stroke-width="5" stroke-linecap="round"/>
<circle cx="181.5" cy="179.5" r="21.5" fill="#FDDB01" stroke="white" stroke-width="4"/>
<path d="M189.408 171.445C189.84 171.124 190.375 170.968 190.914 171.006C191.453 171.044 191.96 171.273 192.342 171.652C192.725 172.031 192.956 172.533 192.994 173.068C193.033 173.602 192.875 174.132 192.551 174.561L180.95 187.364C180.531 187.772 179.966 188 179.379 188C178.791 188 178.227 187.772 177.807 187.364L171.449 182.364C171.125 181.935 170.967 181.405 171.006 180.871C171.044 180.337 171.275 179.834 171.658 179.455C172.04 179.076 172.547 178.847 173.086 178.809C173.625 178.771 174.16 178.927 174.592 179.248L179.379 182.668L189.408 171.423L189.408 171.445Z" fill="white"/>
</svg>
