<svg width="280" height="280" viewBox="0 0 280 280" fill="none" xmlns="http://www.w3.org/2000/svg">
<circle cx="140" cy="140" r="140" fill="#F7F7F7"/>
<path d="M122.724 85.834L103.115 105.496" stroke="#333333" stroke-width="5" stroke-miterlimit="10" stroke-linecap="round" stroke-linejoin="round"/>
<path d="M157.281 85.834L176.89 105.496" stroke="#333333" stroke-width="5" stroke-miterlimit="10" stroke-linecap="round" stroke-linejoin="round"/>
<path d="M85.834 117.521C85.834 107.5 91.1965 106.688 97.859 106.688H182.142C188.805 106.688 194.167 107.5 194.167 117.521C194.167 129.167 188.805 128.354 182.142 128.354H97.859C91.1965 128.354 85.834 129.167 85.834 117.521Z" stroke="#333333" stroke-width="5"/>
<path d="M127.865 150.834V170.063" stroke="#333333" stroke-width="5" stroke-linecap="round"/>
<path d="M152.785 150.834V170.063" stroke="#333333" stroke-width="5" stroke-linecap="round"/>
<path d="M93.959 129.166L101.596 175.966C103.33 186.474 107.501 194.166 122.992 194.166H155.655C172.501 194.166 174.992 186.799 176.942 176.616L186.042 129.166" stroke="#333333" stroke-width="5" stroke-linecap="round"/>
<circle cx="181.5" cy="179.5" r="21.5" fill="#333333" stroke="white" stroke-width="4"/>
<path d="M187.152 171.45C187.482 171.203 187.89 171.083 188.301 171.112C188.712 171.141 189.099 171.317 189.391 171.609C189.682 171.9 189.859 172.286 189.888 172.697C189.917 173.108 189.797 173.516 189.55 173.845L182.699 180.69C182.379 181.003 181.948 181.179 181.5 181.179C181.051 181.179 180.621 181.003 180.301 180.69L173.449 173.845C173.202 173.516 173.082 173.108 173.111 172.697C173.14 172.286 173.317 171.9 173.609 171.609C173.9 171.317 174.287 171.141 174.698 171.112C175.11 171.083 175.518 171.203 175.847 171.45L181.5 177.079L187.152 171.433L187.152 171.45Z" fill="white"/>
<path d="M175.848 187.55C175.518 187.797 175.11 187.917 174.699 187.888C174.288 187.859 173.901 187.683 173.609 187.391C173.318 187.1 173.141 186.714 173.112 186.303C173.083 185.892 173.203 185.484 173.45 185.155L180.301 178.31C180.621 177.997 181.052 177.821 181.5 177.821C181.949 177.821 182.379 177.997 182.699 178.31L189.551 185.155C189.798 185.484 189.918 185.892 189.889 186.303C189.86 186.714 189.683 187.1 189.391 187.391C189.1 187.683 188.713 187.859 188.302 187.888C187.89 187.917 187.482 187.797 187.153 187.55L181.5 181.921L175.848 187.567L175.848 187.55Z" fill="white"/>
</svg>
